<?xml version="1.0" encoding="UTF-8"?>
<!DOCTYPE svg PUBLIC "-//W3C//DTD SVG 1.1//EN" "http://www.w3.org/Graphics/SVG/1.1/DTD/svg11.dtd">
<!-- Creator: CorelDRAW 2020 (64-Bit) -->
<svg xmlns="http://www.w3.org/2000/svg" xml:space="preserve" width="11.3638mm" height="11.3638mm" version="1.1" style="shape-rendering:geometricPrecision; text-rendering:geometricPrecision; image-rendering:optimizeQuality; fill-rule:evenodd; clip-rule:evenodd"
viewBox="0 0 33.22 33.22"
 xmlns:xlink="http://www.w3.org/1999/xlink"
 xmlns:xodm="http://www.corel.com/coreldraw/odm/2003">
 <defs>
  <style type="text/css">
   <![CDATA[
    .fil0 {fill:#23478F}
    .fil1 {fill:#FFDE21;fill-rule:nonzero}
   ]]>
  </style>
 </defs>
 <g id="Слой_x0020_1">
  <metadata id="CorelCorpID_0Corel-Layer"/>
  <g id="_1415292106912">
   <circle class="fil0" cx="16.61" cy="16.61" r="16.61"/>
   <g>
    <path class="fil1" d="M18.18 7.76c0.45,-0.67 1.36,-0.84 2.03,-0.39 0.67,0.45 0.84,1.36 0.39,2.03l-2.42 -1.64zm-5.57 8.2l5.57 -8.2 2.42 1.64 -5.57 8.2 -2.4 0.02 -0.02 -1.67zm2.42 1.64c-0.45,0.67 -1.36,0.84 -2.03,0.39 -0.67,-0.45 -0.84,-1.36 -0.39,-2.03l2.42 1.64zm3.17 7.87l-5.57 -7.85 2.38 -1.69 5.57 7.85 -2.38 1.69zm2.38 -1.69c0.47,0.66 0.31,1.57 -0.35,2.04 -0.66,0.47 -1.57,0.31 -2.04,-0.35l2.38 -1.69z"/>
   </g>
  </g>
 </g>
</svg>
