<svg width="142" height="142" viewBox="0 0 142 142" fill="none" xmlns="http://www.w3.org/2000/svg">
<g clip-path="url(#clip0_4:449)">
<path d="M12.4103 66.7687C20.8067 56.4137 29.2039 46.1135 39.6858 38.0293C50.1678 29.945 62.7901 24.1315 75.3846 18.2906" stroke="#FFDE21" stroke-width="4" stroke-miterlimit="22.9256"/>
<path d="M53.3883 13.6801C60.7477 15.2077 68.0801 16.7627 75.4118 18.2629C72.7967 25.0271 70.1546 31.8187 67.5394 38.5829" stroke="#FFDE21" stroke-width="4" stroke-miterlimit="22.9256"/>
<path d="M77.4087 138.366C79.7144 125.196 82.02 112.026 87.2418 99.8386C92.4636 87.6518 100.629 76.4209 108.766 65.1626" stroke="#FFDE21" stroke-width="4" stroke-miterlimit="22.9256"/>
<path d="M87.3929 71.7493C94.5355 69.5538 101.623 67.3582 108.766 65.1627C109.744 72.3896 110.75 79.6438 111.728 86.8707" stroke="#FFDE21" stroke-width="4" stroke-miterlimit="22.9256"/>
</g>
<defs>
<clipPath id="clip0_4:449">
<rect width="90.3162" height="108.79" fill="white" transform="translate(141.381 76.9893) rotate(134.574)"/>
</clipPath>
</defs>
</svg>
