<svg width="164" height="162" viewBox="0 0 164 162" fill="none" xmlns="http://www.w3.org/2000/svg">
<g clip-path="url(#clip0_4:441)">
<path d="M149.771 80.9938C140.881 93.6108 131.987 106.165 120.511 116.322C109.036 126.479 94.9101 134.18 80.8189 141.911" stroke="#FFDE21" stroke-width="4" stroke-miterlimit="22.9256"/>
<path d="M106.587 145.518C97.9666 144.328 89.3755 143.105 80.7896 141.945C83.2817 133.928 85.8028 125.877 88.2948 117.859" stroke="#FFDE21" stroke-width="4" stroke-miterlimit="22.9256"/>
<path d="M69.0969 3.37267C67.463 18.7656 65.8291 34.1585 60.7499 48.6434C55.6707 63.1283 47.1171 76.739 38.5978 90.3791" stroke="#FFDE21" stroke-width="4" stroke-miterlimit="22.9256"/>
<path d="M62.7705 81.1004C54.6919 84.1947 46.6764 87.2846 38.5977 90.3789C36.903 82.1077 35.1741 73.807 33.4795 65.5358" stroke="#FFDE21" stroke-width="4" stroke-miterlimit="22.9256"/>
</g>
<defs>
<clipPath id="clip0_4:441">
<rect width="104.561" height="125.948" fill="white" transform="translate(0 79.2672) rotate(-49.2967)"/>
</clipPath>
</defs>
</svg>
