<svg width="24" height="24" viewBox="0 0 24 24" fill="none" xmlns="http://www.w3.org/2000/svg">
<g clip-path="url(#clip0_12:946)">
<path fill-rule="evenodd" clip-rule="evenodd" d="M11.5227 0H12.5388C13.3551 0.0342742 14.1704 0.151897 14.972 0.355465C15.3674 0.455951 15.7395 0.573314 16.0835 0.697169C19.1049 1.7833 21.4968 4.01839 22.8906 6.92131C23.7366 8.68306 23.9983 10.2638 23.9993 12.4075V12.4254C23.9983 15.4681 22.4547 18.5353 20.4719 20.5196L19.714 21.215C17.6293 22.8445 15.2371 23.999 12.3318 24H12.2581C10.7999 23.999 10.5348 23.9587 9.10433 23.6604C7.80139 23.3885 6.14558 22.5766 5.10852 21.8436C4.55884 21.4549 4.00422 20.9974 3.52646 20.5196C2.29233 19.2855 1.29318 17.7444 0.696238 16.0842C0.108902 14.4502 0.00036748 13.3649 -0.000930786 11.6068V11.573C0.000107826 10.1374 0.48488 8.15622 1.12389 6.89067C2.51459 4.13653 4.1665 2.49786 6.92064 1.10924C7.22366 0.956562 7.61495 0.801809 7.94965 0.685225C9.10485 0.282762 10.3091 0.050892 11.5222 0.000259653L11.5227 0ZM11.7273 7.71975C13.1175 7.55357 14.24 8.59322 14.3877 9.81541C14.5591 11.2331 13.5231 12.3538 12.2981 12.5093C10.8902 12.6877 9.72853 11.6309 9.59767 10.409C9.44239 8.95907 10.4592 7.87138 11.7271 7.71975H11.7273ZM11.9956 18.2001C12.1334 18.0646 12.8561 16.8873 13.0534 16.6056C13.2377 16.3426 13.3904 16.0886 13.5683 15.8113C14.2725 14.7135 15.6312 12.831 16.0225 11.7236C17.1123 8.63996 14.8961 5.80325 11.9956 5.80013C11.1818 5.79935 10.5098 6.01383 9.88952 6.34826C9.51484 6.55027 9.07524 6.90496 8.79118 7.21187C7.76478 8.32058 7.38672 10.0556 7.96653 11.7262C8.21294 12.4366 8.53776 12.9227 8.88154 13.4628L10.9494 16.6284C11.1322 16.9107 11.8465 18.0389 11.9956 18.2004V18.2001Z" fill="white"/>
</g>
<defs>
<clipPath id="clip0_12:946">
<rect width="24" height="24" fill="white"/>
</clipPath>
</defs>
</svg>
