<svg width="24" height="24" viewBox="0 0 24 24" fill="none" xmlns="http://www.w3.org/2000/svg">
<path fill-rule="evenodd" clip-rule="evenodd" d="M8.67182 10.8281C8.67182 11.2964 8.72177 11.3828 9.00614 11.7595C9.46188 12.3627 10.0302 13.0053 10.5585 13.5353C10.7586 13.736 10.9244 13.8554 11.1204 14.0516C11.5366 14.4682 12.6401 15.375 13.1719 15.375C14.1816 15.375 14.903 13.5938 15.5625 13.5938C15.9076 13.5938 16.6892 14.5097 16.9335 14.754C17.5088 15.3293 18.423 15.9884 18.2821 16.4973C18.2298 16.6867 17.5114 17.357 17.355 17.4959C16.0155 18.6865 14.2516 18.2489 12.796 17.532C12.4478 17.3605 12.1513 17.2058 11.8212 17.0069C11.1679 16.6135 10.677 16.266 10.0887 15.7862C9.80957 15.5585 9.54574 15.3359 9.29276 15.0822C9.05426 14.843 8.75428 14.5806 8.5449 14.3302C8.08944 13.7852 7.64749 13.2803 7.24662 12.6753C6.25309 11.176 5.05358 8.97561 6.13068 7.25604C6.4498 6.74641 6.77314 6.47372 7.1833 6.05864C7.76047 5.47471 8.00628 5.8269 8.5193 6.34005L9.87865 7.69941C10.536 8.35678 10.7012 8.44838 10.0427 9.10562C9.56221 9.58528 8.67168 10.3049 8.67168 10.8283L8.67182 10.8281ZM11.5231 0H12.5391C13.3555 0.0343321 14.1707 0.151821 14.9725 0.355563C15.3679 0.456027 15.7399 0.573516 16.084 0.697196C19.1053 1.78316 21.4974 4.01827 22.8912 6.9213C23.7372 8.68308 23.9987 10.2639 24 12.4076V12.4254C23.9989 15.468 22.4555 18.5354 20.4727 20.5196L19.7148 21.2149C17.6301 22.8444 15.2378 23.9989 12.3326 24H12.259C10.8008 23.9989 10.5356 23.9586 9.1052 23.6605C7.80212 23.3888 6.14644 22.5768 5.10944 21.8437C4.5597 21.4549 4.00518 20.9973 3.52735 20.5196C2.29322 19.2855 1.29393 17.7445 0.697055 16.0842C0.10975 14.4503 0.00112564 13.3649 0 11.6067V11.5729C0.00112564 10.1373 0.485716 8.156 1.1248 6.89049C2.51539 4.13632 4.16756 2.49766 6.92159 1.10904C7.22467 0.956235 7.61597 0.801599 7.95071 0.684954C9.10576 0.282396 10.3101 0.050654 11.5232 0L11.5231 0Z" fill="white"/>
</svg>
