<svg width="142" height="142" viewBox="0 0 142 142" fill="none" xmlns="http://www.w3.org/2000/svg"><g clip-path="url(#clip0_4:449)" stroke="#FFDE21" stroke-width="4" stroke-miterlimit="22.926"><path d="M12.41 66.769c8.397-10.355 16.794-20.656 27.276-28.74S62.79 24.131 75.385 18.291"/><path d="M53.388 13.68c7.36 1.528 14.692 3.083 22.024 4.583-2.615 6.764-5.257 13.556-7.873 20.32m9.87 99.783c2.305-13.17 4.611-26.34 9.833-38.527 5.222-12.187 13.387-23.418 21.524-34.676"/><path d="M87.393 71.75c7.142-2.196 14.23-4.392 21.373-6.587.978 7.227 1.984 14.48 2.962 21.708"/></g><defs><clipPath id="clip0_4:449"><path fill="#fff" transform="rotate(134.574 54.578 68.084)" d="M0 0h90.316v108.79H0z"/></clipPath></defs></svg>