<svg width="164" height="162" viewBox="0 0 164 162" fill="none" xmlns="http://www.w3.org/2000/svg"><g clip-path="url(#clip0_4:441)" stroke="#FFDE21" stroke-width="4" stroke-miterlimit="22.926"><path d="M149.771 80.994c-8.89 12.617-17.784 25.171-29.26 35.328-11.475 10.157-25.6 17.858-39.692 25.589"/><path d="M106.587 145.518c-8.62-1.19-17.212-2.413-25.797-3.573 2.492-8.017 5.013-16.068 7.505-24.086M69.097 3.373c-1.634 15.393-3.268 30.785-8.347 45.27C55.67 63.128 47.117 76.74 38.598 90.38"/><path d="M62.77 81.1c-8.078 3.095-16.094 6.185-24.172 9.279-1.695-8.271-3.424-16.572-5.118-24.843"/></g><defs><clipPath id="clip0_4:441"><path fill="#fff" transform="rotate(-49.297 86.375 39.634)" d="M0 0h104.561v125.948H0z"/></clipPath></defs></svg>