<svg xmlns="http://www.w3.org/2000/svg" width="42.95" height="42.95" viewBox="0 0 33.22 33.22" shape-rendering="geometricPrecision" text-rendering="geometricPrecision" image-rendering="optimizeQuality" fill-rule="evenodd" clip-rule="evenodd"><g id="Слой_x0020_1"><g id="_1415292106912"><circle cx="16.61" cy="16.61" r="16.61" fill="#23478f"/><path d="M18.18 7.76A1.462 1.462 0 0120.6 9.4l-2.42-1.64zm-5.57 8.2l5.57-8.2L20.6 9.4l-5.57 8.2-2.4.02-.02-1.67zm2.42 1.64a1.462 1.462 0 01-2.42-1.64l2.42 1.64zm3.17 7.87l-5.57-7.85 2.38-1.69 5.57 7.85-2.38 1.69zm2.38-1.69c.47.66.31 1.57-.35 2.04-.66.47-1.57.31-2.04-.35l2.38-1.69z" fill="#ffde21" fill-rule="nonzero"/></g></g></svg>