<svg width="24" height="24" viewBox="0 0 24 24" fill="none" xmlns="http://www.w3.org/2000/svg"><g clip-path="url(#clip0_12:946)"><path fill-rule="evenodd" clip-rule="evenodd" d="M11.523 0h1.016a11.913 11.913 0 013.545.697c3.02 1.086 5.413 3.321 6.807 6.224.846 1.762 1.107 3.343 1.108 5.487v.017c0 3.043-1.544 6.11-3.527 8.095l-.758.695c-2.085 1.63-4.477 2.784-7.382 2.785h-.074c-1.458-.001-1.723-.041-3.154-.34-1.303-.271-2.958-1.083-3.995-1.816a12.413 12.413 0 01-1.583-1.324 12.185 12.185 0 01-2.83-4.436C.11 14.45 0 13.364 0 11.607v-.034c0-1.436.485-3.417 1.124-4.682 1.39-2.754 3.042-4.393 5.797-5.782A9.094 9.094 0 017.95.685 12.441 12.441 0 0111.522 0zm.204 7.72c1.39-.166 2.513.873 2.66 2.095.172 1.418-.864 2.539-2.089 2.694a2.418 2.418 0 01-2.7-2.1c-.156-1.45.861-2.538 2.13-2.69zm.269 10.48c.137-.135.86-1.313 1.057-1.594.185-.263.337-.517.515-.795.705-1.098 2.063-2.98 2.455-4.087 1.09-3.084-1.127-5.92-4.027-5.924-.814 0-1.486.214-2.106.548a4.725 4.725 0 00-1.099.864c-1.026 1.109-1.404 2.844-.824 4.514.246.71.57 1.197.915 1.737l2.067 3.165c.183.283.898 1.41 1.047 1.572z" fill="#fff"/></g><defs><clipPath id="clip0_12:946"><path fill="#fff" d="M0 0h24v24H0z"/></clipPath></defs></svg>