<svg width="24" height="24" viewBox="0 0 24 24" fill="none" xmlns="http://www.w3.org/2000/svg"><path fill-rule="evenodd" clip-rule="evenodd" d="M8.672 10.828c0 .468.05.555.334.931a18.057 18.057 0 001.553 1.776c.2.201.365.32.561.517.417.416 1.52 1.323 2.052 1.323 1.01 0 1.731-1.781 2.39-1.781.346 0 1.127.916 1.371 1.16.576.575 1.49 1.234 1.35 1.743-.053.19-.772.86-.928.999-1.34 1.19-3.103.753-4.559.036a12.5 12.5 0 01-.975-.525 13.875 13.875 0 01-1.732-1.22 10.3 10.3 0 01-.796-.705c-.239-.239-.539-.501-.748-.752-.456-.545-.898-1.05-1.298-1.655-.994-1.499-2.193-3.7-1.116-5.419.319-.51.642-.782 1.052-1.197.577-.584.823-.232 1.336.281L9.88 7.7c.657.657.822.748.164 1.406-.48.48-1.371 1.199-1.371 1.722zM11.523 0h1.016a11.908 11.908 0 013.545.697c3.021 1.086 5.413 3.321 6.807 6.224C23.737 8.683 24 10.264 24 12.408v.017c-.001 3.043-1.544 6.11-3.527 8.095l-.758.695c-2.085 1.63-4.477 2.784-7.382 2.785h-.074c-1.458-.001-1.723-.041-3.154-.34-1.303-.271-2.959-1.083-3.996-1.816a12.431 12.431 0 01-1.582-1.324 12.183 12.183 0 01-2.83-4.436C.11 14.45.001 13.364 0 11.607v-.034c.001-1.436.486-3.417 1.125-4.683 1.39-2.754 3.043-4.392 5.797-5.781A9.085 9.085 0 017.95.685 12.437 12.437 0 0111.523 0z" fill="#fff"/></svg>